<?xml version="1.0" encoding="UTF-8"?>
<svg width="73px" height="72px" viewBox="0 0 73 72" version="1.1" xmlns="http://www.w3.org/2000/svg" xmlns:xlink="http://www.w3.org/1999/xlink">
    <!-- Generator: Sketch 49.3 (51167) - http://www.bohemiancoding.com/sketch -->
    <title>pcchengb@3x</title>
    <desc>Created with Sketch.</desc>
    <defs></defs>
    <g id="Page-1" stroke="none" stroke-width="1" fill="none" fill-rule="evenodd">
        <g id="刀锋PC端" transform="translate(-1266.000000, -1769.000000)" fill="#000000" fill-rule="nonzero">
            <g id="pcchengb" transform="translate(1266.000000, 1769.000000)">
                <path d="M58.8209607,22.6878981 L43.1528384,35.2993631 L26.8034934,24.0636943 C25.8951965,23.6050955 24.9868996,23.6050955 24.0786026,24.2929936 L10.9082969,36.2165605 C10.2270742,36.6751592 10,37.5923567 10,38.2802548 C10.2270742,38.9681529 10.6812227,39.656051 11.5895197,39.8853503 C12.2707424,40.1146497 13.1790393,39.8853503 13.6331878,39.1974522 L25.441048,28.4203822 L41.790393,39.656051 C42.4716157,40.1146497 43.6069869,40.1146497 44.2882096,39.656051 L61.0917031,25.8980892 C61.7729258,25.4394904 62,24.7515924 62,23.8343949 C62,23.1464968 61.3187773,22.4585987 60.6375546,22 C60.1834061,22 59.5021834,22 58.8209607,22.6878981 Z" id="Shape"></path>
                <path d="M68.209375,5.47531855 L38.553125,5.47531855 L38.553125,2.28138273 C38.553125,1.59696791 38.325,1.14069136 37.86875,0.684414818 C37.4125,0.228138273 36.95625,0 36.271875,0 C35.13125,0 34.21875,0.912553091 34.21875,2.05324446 L34.21875,5.24718027 L4.790625,5.24718027 C3.65,5.47531855 2.28125,6.15973337 1.36875,7.07228646 C0.45625,7.98483955 0,9.12553091 0,10.4943605 L0,50.6466966 C0,53.3843558 2.28125,55.4376003 4.790625,55.4376003 L34.21875,55.4376003 L34.21875,57.9471213 L20.9875,67.9852053 C20.303125,68.4414818 19.846875,69.1258967 20.075,70.0384497 C20.075,70.9510028 20.759375,71.6354177 21.44375,71.8635559 C22.128125,72.0916942 23.040625,72.0916942 23.725,71.4072794 L34.446875,63.1943016 L35.815625,62.2817485 C36.271875,61.8254719 36.95625,61.8254719 37.4125,62.2817485 L38.78125,63.1943016 L49.503125,71.4072794 C49.959375,71.8635559 50.415625,71.8635559 51.1,71.8635559 C51.55625,71.8635559 52.240625,71.4072794 52.46875,70.9510028 C53.153125,70.0384497 52.925,68.6696201 52.0125,67.9852053 L38.78125,57.9471213 L38.78125,55.4376003 L68.209375,55.4376003 C69.578125,55.4376003 70.71875,54.9813237 71.63125,54.0687706 C72.54375,53.1562176 73,52.0155262 73,50.6466966 L73,10.4943605 C73,9.12553091 72.54375,7.98483955 71.63125,7.07228646 C70.71875,6.15973337 69.35,5.47531855 68.209375,5.47531855 Z M68.665625,50.4185583 C68.665625,50.6466966 68.4375,51.1029731 67.98125,51.1029731 L4.790625,51.1029731 C4.5625,51.1029731 4.334375,50.8748348 4.334375,50.4185583 L4.334375,10.4943605 C4.334375,10.2662223 4.5625,10.038084 5.01875,10.038084 L68.209375,10.038084 C68.4375,10.038084 68.89375,10.2662223 68.89375,10.7224988 L68.89375,50.4185583 L68.665625,50.4185583 Z" id="Shape"></path>
            </g>
        </g>
    </g>
</svg>