<?xml version="1.0" encoding="UTF-8"?>
<svg width="70px" height="70px" viewBox="0 0 70 70" version="1.1" xmlns="http://www.w3.org/2000/svg" xmlns:xlink="http://www.w3.org/1999/xlink">
    <!-- Generator: Sketch 49.3 (51167) - http://www.bohemiancoding.com/sketch -->
    <title>pcfensiqd</title>
    <desc>Created with Sketch.</desc>
    <defs></defs>
    <g id="Page-1" stroke="none" stroke-width="1" fill="none" fill-rule="evenodd">
        <g id="刀锋PC端" transform="translate(-925.000000, -2594.000000)" fill="#E15100" fill-rule="nonzero">
            <g id="Group" transform="translate(315.000000, 2594.000000)">
                <g id="pcfensiqd" transform="translate(622.000000, 11.000000)">
                    <path d="M18.5857487,4.29101182 L18.5857487,13.0249041 C18.5857487,13.6028222 19.0240555,14.0894269 19.5491106,14.0894269 L27.4511297,14.0894269 C27.9740221,14.0894269 28.4142513,13.6049849 28.4142513,13.0249041 L28.4142513,4.29101182 C28.4082438,3.70588477 27.9802699,3.23345776 27.4511297,3.22648908 L19.5491106,3.22648908 C19.0197301,3.23321742 18.5922367,3.70588477 18.5857487,4.29101182 Z M37.0866716,29.6840841 L37.0866716,28.1716448 C37.0866716,26.7959354 37.0518281,25.6980112 35.8140437,25.6980112 L11.1859562,25.6980112 C9.95946597,25.6980112 9.91356873,26.8110742 9.91356873,28.1716448 L9.91356873,29.6840841 L12.3319461,29.6840841 C14.1671158,29.6840841 15.6665866,31.3491129 15.6665866,33.370024 L15.6665866,43.31406 C15.6665866,45.3424203 14.1603873,47 12.3319461,47 L3.33464049,47 C1.49947082,47 0,45.3352114 0,43.31406 L0,33.370024 C0,31.3416637 1.50643953,29.684084 3.33464049,29.6840841 L6.71421702,29.6840841 L6.71421702,27.2104504 C6.71421702,24.4821003 8.72408463,22.2631831 11.1859562,22.2631832 L21.4198447,22.2631832 L21.4198447,17.3156757 L19.0014674,17.3156757 C17.1662977,17.3156757 15.6665866,15.6508871 15.6665866,13.629976 L15.6665866,3.68569971 C15.6665866,1.65733938 17.1730261,5.0555161e-08 19.0014674,0 L27.9985326,0 C29.8339426,0 31.3334134,1.66478859 31.3334134,3.68569971 L31.3334134,13.629976 C31.3334134,15.6583363 29.8269739,17.3156757 27.9985326,17.3156757 L24.6191964,17.3156757 L24.6191964,22.2631832 L35.8140437,22.2631832 C38.2874497,22.2631832 40.2857829,24.4672018 40.2857829,27.2104504 L40.2857829,29.6840841 L43.6651192,29.6840841 C45.5005292,29.6840841 47,31.3491129 47,33.370024 L47,43.31406 C47,45.3424203 45.4935605,47 43.6651192,47 L34.6682942,47 C32.8328842,47 31.3334134,45.3352114 31.3334134,43.31406 L31.3334134,33.370024 C31.3334134,31.3416637 32.839853,29.684084 34.6682942,29.6840841 L37.0866716,29.6840841 Z M2.77618369,33.8482182 L2.77618369,42.8356255 C2.77618369,43.4306048 3.22746674,43.9311468 3.76742042,43.9311468 L11.8989258,43.9311468 C12.4369571,43.9311468 12.8901625,43.4325272 12.8901625,42.8356255 L12.8901625,33.8482182 C12.8834342,33.2462702 12.4436855,32.7601462 11.8989258,32.7529372 L3.76742042,32.7529372 C3.22290103,32.7601462 2.78291211,33.2465105 2.77618369,33.8482182 Z M34.270598,33.9911959 L34.270598,42.6928882 C34.270598,43.2686436 34.7072228,43.7535661 35.2303555,43.7535661 L43.1032983,43.7535661 C43.6242683,43.7535661 44.0630557,43.2708062 44.0630557,42.6928882 L44.0630557,33.9911959 C44.0568079,33.4082315 43.6307563,32.9374866 43.1032983,32.9307582 L35.2303555,32.9307582 C34.7028974,32.9374865 34.2770862,33.4082315 34.270598,33.9911959 Z" id="Shape"></path>
                </g>
            </g>
        </g>
    </g>
</svg>