<?xml version="1.0" encoding="UTF-8"?>
<svg width="77px" height="78px" viewBox="0 0 77 78" version="1.1" xmlns="http://www.w3.org/2000/svg" xmlns:xlink="http://www.w3.org/1999/xlink">
    <!-- Generator: Sketch 49.3 (51167) - http://www.bohemiancoding.com/sketch -->
    <title>pcfensij@3x</title>
    <desc>Created with Sketch.</desc>
    <defs></defs>
    <g id="Page-1" stroke="none" stroke-width="1" fill="none" fill-rule="evenodd">
        <g id="刀锋PC端" transform="translate(-580.000000, -1766.000000)" fill="#000000" fill-rule="nonzero">
            <g id="pcfensij" transform="translate(580.000000, 1766.000000)">
                <path d="M74.5668035,57.464349 C73.051239,55.9846828 71.0202176,55.1387035 68.8934027,55.1012131 C67.5273416,55.1050413 66.1837579,55.4461497 64.9840005,56.0937302 C63.7959219,55.4384864 62.457991,55.0967292 61.0984361,55.1012131 C58.8627055,55.1002925 56.7218123,55.9965906 55.1635251,57.5858999 C53.6052379,59.1752093 52.7622825,61.3221617 52.826713,63.5376083 C53.0072447,65.7562584 53.8355543,67.8747883 55.2104948,69.6344989 C56.0283253,70.7767474 56.9285738,71.8587461 57.9041683,72.8719951 C58.6669785,73.6990926 59.5728156,74.5734529 60.7408688,75.6368641 C61.1712677,76.0554652 61.6248912,76.4499343 62.0996244,76.818432 C62.9189485,77.5061961 63.9580788,77.8830731 65.0316761,77.8818432 C66.0978165,77.8815897 67.1289428,77.5045503 67.93989,76.818432 C68.3928085,76.4403303 68.8695649,76.0385972 69.2986456,75.6368641 C70.3713474,74.644347 71.3010224,73.7463554 72.1353461,72.8956265 C73.0888588,71.8558467 73.9708581,70.7688042 74.8051818,69.6581302 C76.163063,67.8500916 76.9285474,65.6725091 76.9982611,63.4194515 C77.0440158,61.1903784 76.1852028,59.0364003 74.6144792,57.4407177 L74.5668035,57.464349 Z M72.7551293,63.3249261 C72.7294643,64.7199188 72.2532291,66.0699891 71.3963737,67.1768376 C70.6621434,68.1703955 69.8659979,69.1174957 69.0125919,70.0126007 C68.2497817,70.8160669 67.3916202,71.6431644 66.366594,72.5647874 C66.0238933,72.9122615 65.6575176,73.2359855 65.2700543,73.5336731 C65.2159166,73.5516857 65.1573273,73.5516857 65.1031896,73.5336731 C65.0269086,73.5651816 64.9410924,73.5651816 64.8648114,73.5336731 L63.6252448,72.6593128 C62.7145105,71.8710703 61.8471531,71.0348905 61.0269226,70.1543888 C60.1620768,69.2694136 59.3652573,68.3215118 58.6431407,67.3186257 C57.7791062,66.2046514 57.2576562,64.8671879 57.1413581,63.4667142 C57.1350176,62.3887114 57.5609224,61.3523658 58.3253748,60.5856709 C59.0898271,59.818976 60.130204,59.3847384 61.2176251,59.3784891 C62.1430351,59.3814509 63.0377584,59.7077904 63.7444339,60.3001121 L65.1031896,61.4344173 L66.4381075,60.3237434 C67.1131895,59.7723241 67.9484695,59.4493863 68.8218893,59.4021205 C69.9261018,59.3926199 70.9890674,59.8175228 71.7777788,60.5836884 C72.5658235,61.3344056 72.9911412,62.3841882 72.9458319,63.4667142 L72.7551293,63.3249261 Z M55.6872512,50.35131 C56.0052397,49.8984913 56.1262882,49.3379707 56.0231792,48.7957813 C55.9200701,48.253592 55.6014575,47.7752405 55.1389814,47.4682842 C51.9469835,45.3185931 48.3451664,43.838876 44.5549899,43.1201141 C54.7502967,39.2862586 60.699795,28.7516988 58.6676387,18.1313615 C56.6354824,7.51102414 47.2077954,-0.131923639 36.30447,0.00172574111 C25.4011445,0.135375121 16.1669685,8.00707388 14.4003234,18.6739757 C12.6336784,29.3408775 18.8441083,39.7263848 29.1319212,43.309165 C25.2385,44.0786253 21.5111437,45.5182643 18.118849,47.5628096 C13.5178441,50.3839123 9.60901368,54.1862326 6.67669609,58.6931797 C3.46763672,63.5972162 1.2194445,69.05678 0.0497825017,74.7861352 L0.0497825017,75.5187073 C-0.0708263301,76.0577446 0.0297539215,76.6222029 0.329351757,77.0876554 C0.628949593,77.5531078 1.10296804,77.8813408 1.64691641,78 L1.95680805,78 C3.0151306,77.9844516 3.89999618,77.1979948 4.03069823,76.156754 L4.17372515,75.4478132 C5.60906908,70.255061 7.84435801,65.313061 10.8006387,60.7963707 C17.1176607,51.343827 25.6515997,46.9247629 37.5466712,46.9247629 C42.8824516,46.6889569 48.1636342,48.0740818 52.6836861,50.8948312 C53.1383321,51.2166353 53.7057609,51.3405712 54.2547301,51.2379734 C54.8036993,51.1353756 55.2866576,50.8151309 55.5919,50.35131 L55.6872512,50.35131 Z M18.8101458,22.3008868 C18.8081568,13.9129813 24.7834511,6.69179 33.0817001,5.05359849 C41.3799491,3.41540698 49.68991,7.81648724 52.929435,15.5652574 C56.16896,23.3140276 53.4357711,32.2522867 46.4014127,36.9136368 C39.3670544,41.5749869 29.9907483,40.6611406 24.0067902,34.7309817 C20.6715864,31.4405363 18.8007127,26.9655068 18.8101458,22.3008868 Z" id="Shape"></path>
            </g>
        </g>
    </g>
</svg>