<?xml version="1.0" encoding="UTF-8"?>
<svg width="67px" height="73px" viewBox="0 0 67 73" version="1.1" xmlns="http://www.w3.org/2000/svg" xmlns:xlink="http://www.w3.org/1999/xlink">
    <!-- Generator: Sketch 49.3 (51167) - http://www.bohemiancoding.com/sketch -->
    <title>pcguangg@3x</title>
    <desc>Created with Sketch.</desc>
    <defs></defs>
    <g id="Page-1" stroke="none" stroke-width="1" fill="none" fill-rule="evenodd">
        <g id="刀锋PC端" transform="translate(-1476.000000, -1779.000000)" fill="#000000" fill-rule="nonzero">
            <g id="pcguangg" transform="translate(1476.000000, 1779.000000)">
                <path d="M8.04527312,48.1670162 L0.482383374,29.2765144 C-0.181212802,27.5331028 -0.160146256,25.6196024 0.545583009,23.8655603 C1.21971246,22.1859321 2.43103881,20.8571123 3.96889661,20.1023427 L44.090132,0.627160186 C47.3449133,-0.956792977 51.0736918,0.563376837 52.4008841,4.01830823 L60.0375068,23.9506047 L57.3072461,26.910685 L48.093616,5.6495687 C47.7354847,4.7353407 46.6084246,4.37390172 45.6077637,4.85227684 L5.48652824,24.3274593 C4.95986461,24.5825927 4.55960025,25.0184456 4.33840153,25.5606041 C4.2330688,25.826368 4.08560298,26.357896 4.29626844,26.910685 L11.4580469,46.2263364 L8.04527312,48.1670162 Z M60.353505,73 L14.491636,73 C10.8260571,73 7.84514094,69.6407436 7.84514094,65.5267176 L7.84514094,30.7116397 C7.84514094,26.5869832 10.8260571,23.2383573 14.491636,23.2383573 L60.353505,23.2383573 C64.0190838,23.2383573 67,26.5976137 67,30.7116397 L67,65.5160871 C67,69.6407436 64.0190838,73 60.353505,73 Z M13.6915598,27.037037 C12.4270687,27.037037 11.4023948,28.2129531 11.4023948,29.6576499 L11.4023948,66.3238316 C11.4023948,67.7685284 12.4270687,68.9444444 13.6915598,68.9444444 L61.1535811,68.9444444 C62.4180722,68.9444444 63.4427461,67.7685284 63.4427461,66.3238316 L63.4427461,29.6576499 C63.4427461,28.2129531 62.4071715,27.037037 61.1535811,27.037037 L13.6915598,27.037037 Z M25.119708,51.4518587 C24.5087782,51.4518587 23.9294482,51.0797891 23.6345166,50.4206945 C23.2131857,49.495836 23.5502504,48.3796273 24.3718457,47.9118828 L43.3844028,37.1006052 C44.1954648,36.6328606 45.1961257,37.0049301 45.6174566,37.9297887 C46.0282542,38.8546473 45.7017228,39.9708559 44.8801275,40.4386004 L25.8675704,51.249878 C25.6253051,51.3880753 25.3725066,51.4518587 25.119708,51.4518587 Z M32.1032678,61.3170166 C31.5239378,61.3170166 30.9551411,60.9768387 30.6496762,60.3708969 C30.1967454,59.47793 30.4811438,58.3404603 31.2711393,57.819563 L50.7050272,45.4243322 C51.4844894,44.9140654 52.5167501,45.2223516 52.9696809,46.1365796 C53.4226116,47.0295465 53.1382132,48.1670162 52.3376845,48.6879135 L32.9248631,61.0725138 C32.6720645,61.2319721 32.3981994,61.3170166 32.1032678,61.3170166 Z" id="Shape"></path>
            </g>
        </g>
    </g>
</svg>