<?xml version="1.0" encoding="UTF-8"?>
<svg width="70px" height="70px" viewBox="0 0 70 70" version="1.1" xmlns="http://www.w3.org/2000/svg" xmlns:xlink="http://www.w3.org/1999/xlink">
    <!-- Generator: Sketch 49.3 (51167) - http://www.bohemiancoding.com/sketch -->
    <title>pcguangtt</title>
    <desc>Created with Sketch.</desc>
    <defs></defs>
    <g id="Page-1" stroke="none" stroke-width="1" fill="none" fill-rule="evenodd">
        <g id="刀锋PC端" transform="translate(-1128.000000, -2594.000000)" fill="#E15100" fill-rule="nonzero">
            <g id="Group" transform="translate(315.000000, 2594.000000)">
                <g id="pctjfx" transform="translate(826.000000, 11.000000)">
                    <path d="M20.8955224,46 C9.40298507,46 0,36.5970149 0,25.1044776 C0,14.238806 8.35820897,5.25373139 19.2238806,4.20895524 L20.8955224,4 L21.1044776,22.8059701 C21.1044776,23.8507463 22.1492537,24.8955224 23.1940299,24.8955224 L42,24.8955224 L41.7910448,26.9850747 C40.7462687,37.6417911 31.761194,46 20.8955224,46 Z M17.5522388,7.76119403 C9.40298507,9.43283585 3.34328355,16.7462687 3.34328355,25.1044776 C3.34328355,34.716418 11.283582,42.6567165 20.8955224,42.6567165 C29.2537313,42.6567165 36.5671641,36.597015 38.0298507,28.4477612 L22.9850746,28.4477612 C20.0597015,28.4477612 17.5522388,25.9402985 17.5522388,23.0149254 L17.5522388,7.76119403 Z" id="Shape"></path>
                    <path d="M27.0792079,21 C25.8316831,21 25,20.1683168 25,18.9207921 L25,0 L26.8712871,0.207920808 C37.059406,1.03960399 44.9603961,8.94059408 45.7920792,19.1287129 L46,21 L27.0792079,21 Z M28.3267326,3.74257426 L28.3267326,17.6732674 L42.2574257,17.6732674 C40.8019802,10.6039604 35.3960396,5.19801982 28.3267326,3.74257426 Z" id="Shape"></path>
                </g>
            </g>
        </g>
    </g>
</svg>