<?xml version="1.0" encoding="UTF-8"?>
<svg width="70px" height="84px" viewBox="0 0 70 84" version="1.1" xmlns="http://www.w3.org/2000/svg" xmlns:xlink="http://www.w3.org/1999/xlink">
    <!-- Generator: Sketch 49.3 (51167) - http://www.bohemiancoding.com/sketch -->
    <title>pcjiesuanz@3x</title>
    <desc>Created with Sketch.</desc>
    <defs></defs>
    <g id="Page-1" stroke="none" stroke-width="1" fill="none" fill-rule="evenodd">
        <g id="刀锋PC端" transform="translate(-923.000000, -1770.000000)" fill="#FFF" fill-rule="nonzero">
            <g id="pcjiesuanz" transform="translate(923.000000, 1770.000000)">
                <path d="M62.508187,22.9433953 L63.3834475,20.3138127 C64.029473,18.3547212 63.8731765,16.2699126 62.956237,14.4260618 C62.0392975,12.5926875 60.4554928,11.2202758 58.5174159,10.560261 L28.0083358,0.398128759 C26.0494195,-0.251409579 23.9758857,-0.104739634 22.1524263,0.827662222 C20.328967,1.74958762 18.9639774,3.34200418 18.307532,5.29061928 C18.2033344,5.61538845 18.172075,5.92968116 18.1929146,6.24397396 L17.8907413,6.17063895 C15.9005656,5.68872338 13.8374516,6.00301618 12.0869307,7.06113507 C10.3364096,8.12973041 9.09645728,9.82691127 8.61714794,11.817432 L5.74129208,23.6348394 C2.34444778,25.3634495 0,28.9149575 0,33.0007633 L0,73.5130986 C0,79.2856088 4.66805597,84 10.4301876,84 L59.5698124,84 C65.3111045,84 70,79.2960852 70,73.5130986 L70,33.0007633 C70,28.2444664 66.8323906,24.2319956 62.508187,22.9433953 Z M22.9651682,6.84113011 C23.194403,6.12873321 23.6945519,5.56300626 24.3509974,5.22776072 C25.0178625,4.8925151 25.7680858,4.85060945 26.4557904,5.08109078 L56.9648705,15.2536994 C57.6629949,15.4841807 58.2360821,15.9870491 58.5695147,16.6470639 C58.9029473,17.3070787 58.9550461,18.0718577 58.7153915,18.7633018 L57.4754391,22.5138619 L54.8600774,22.5138619 C55.1414111,20.7223932 54.7975588,18.9099717 53.8389401,17.3280315 C52.7761238,15.5679921 51.0985412,14.3212975 49.1083656,13.839382 L22.7255136,7.35447496 C22.8192915,7.19732856 22.9026496,7.01922933 22.9651682,6.84113011 Z M13.3894016,12.9907916 C13.5665377,12.2679182 14.0041679,11.6602856 14.6501935,11.2726579 C15.2753796,10.8955066 16.0360226,10.780266 16.7445668,10.9478887 L47.9621911,18.6271083 C48.6811551,18.8052075 49.2855016,19.2452173 49.671033,19.8947557 C50.0565644,20.5233412 50.1607621,21.2776437 49.9940458,22.0005171 C49.9523667,22.1786163 49.9211074,22.3462391 49.9211075,22.5243383 L11.0657934,22.5243383 L13.3894016,12.9907916 Z M65.0922894,73.5235751 C65.0922894,76.5826911 62.6123846,79.0760803 59.5698124,79.0760803 L10.4301876,79.0760803 C7.38761537,79.0760803 4.90771064,76.5826911 4.90771064,73.5235751 L4.90771064,33.0007633 C4.90771064,29.9416472 7.38761537,27.4482581 10.4301876,27.4482581 L59.5698124,27.4482581 C62.6123846,27.4482581 65.0922894,29.9416472 65.0922894,33.0007633 L65.0922894,73.5235751 Z" id="Shape"></path>
                <path d="M41.2776481,41 L36.154923,50.9645767 C35.6621558,51.9404888 35.2617825,52.7417641 34.9743351,53.3786751 C34.6868876,52.7212186 34.3378442,51.9815799 33.8758749,51.1392136 L28.4657022,41 L24,41 L31.4428371,54.7141339 L25.4269715,54.7141339 L25.4269715,58.2890542 L33.0237984,58.2890542 L33.0237984,60.3436061 L25.4269715,60.3436061 L25.4269715,63.7336167 L33.0237984,63.7336167 L33.0237984,70 L37.0480634,70 L37.0480634,63.7336167 L44.6038264,63.7336167 L44.6038264,60.3436061 L37.0480634,60.3436061 L37.0480634,58.2890542 L44.6038264,58.2890542 L44.6038264,54.7141339 L38.5879607,54.7141339 L46,41 L41.2776481,41 Z" id="Shape"></path>
            </g>
        </g>
    </g>
</svg>