<?xml version="1.0" encoding="UTF-8"?>
<svg width="70px" height="70px" viewBox="0 0 70 70" version="1.1" xmlns="http://www.w3.org/2000/svg" xmlns:xlink="http://www.w3.org/1999/xlink">
    <!-- Generator: Sketch 49.3 (51167) - http://www.bohemiancoding.com/sketch -->
    <title>pclldr</title>
    <desc>Created with Sketch.</desc>
    <defs></defs>
    <g id="Page-1" stroke="none" stroke-width="1" fill="none" fill-rule="evenodd">
        <g id="刀锋PC端" transform="translate(-315.000000, -2594.000000)" fill="#E15100" fill-rule="nonzero">
            <g id="Group" transform="translate(315.000000, 2594.000000)">
                <g id="pczaf" transform="translate(12.000000, 12.000000)">
                    <path d="M34.7117073,0 C42.0379161,0 48,5.53400313 48,12.3884514 C48,14.5208013 47.3937835,16.6023968 46.2821478,18.4811407 C44.615135,21.2227097 41.9374492,23.2540489 38.7036701,24.2183275 C37.8444686,24.4720443 37.1877432,24.5737745 36.5815818,24.5737745 C35.1667828,24.5737745 34.0549268,23.4569005 34.0549268,22.0351678 C34.0549268,20.6135459 35.1668378,19.4964505 36.5815818,19.4964505 C36.6820487,19.4964505 36.8846349,19.4964505 37.1371793,19.3952737 C39.3098315,18.7856672 41.0277388,17.5165852 41.9875725,15.8406931 C42.6446283,14.7746288 42.9477366,13.6071664 42.9477366,12.3884514 C42.9477366,8.37719167 39.2593227,5.07732403 34.7625466,5.07732403 C33.1958355,5.07732403 31.6798535,5.48369149 30.3159489,6.24478643 C27.9413163,7.61609674 26.5265723,9.90048851 26.5265723,12.3884514 L26.5265723,33.662469 C26.5265723,37.9774804 24.1519948,41.9377644 20.2107611,44.1721213 C18.0886728,45.3908916 15.7135444,46 13.2883478,46 C5.96208393,46 0,40.4655541 0,33.6116592 C0,31.4789773 0.606161448,29.397105 1.71785218,27.5186933 C3.38497517,24.7766262 6.06315674,22.7459511 9.29699088,21.7814511 C10.2062606,21.5277343 10.812367,21.4260594 11.4190241,21.4260594 C12.8338231,21.4260594 13.9450181,22.5432102 13.9450181,23.9646108 C13.9450181,25.3862327 12.8338231,26.5035495 11.4190241,26.5035495 C11.3178962,26.5035495 11.1154752,26.5035495 10.8629309,26.6044495 C8.69027863,27.2644231 6.97237137,28.5342799 6.01259279,30.1585321 C5.35581232,31.2249838 5.05270405,32.3928889 5.05270405,33.6116592 C5.05270405,37.6223102 8.74078749,40.9226206 13.2882927,40.9226206 C14.8547285,40.9226206 16.3706554,40.5163639 17.7347803,39.7545494 C20.1094129,38.3839586 21.5242119,36.0995115 21.5242119,33.6117146 L21.5242119,12.3884514 C21.5242119,8.07260979 23.8987344,4.11238118 27.8398579,1.87879918 C29.9114374,0.609163759 32.2865107,0 34.7117073,0 Z" id="Shape"></path>
                </g>
            </g>
        </g>
    </g>
</svg>