<?xml version="1.0" encoding="UTF-8"?>
<svg width="270px" height="101px" viewBox="0 0 270 101" version="1.1" xmlns="http://www.w3.org/2000/svg" xmlns:xlink="http://www.w3.org/1999/xlink">
    <!-- Generator: Sketch 49.3 (51167) - http://www.bohemiancoding.com/sketch -->
    <title>PClogo@3x</title>
    <desc>Created with Sketch.</desc>
    <defs>
        <polygon id="path-1" points="0.885796364 0.282847458 51.71816 0.282847458 51.71816 55.3630237 0.885796364 55.3630237"></polygon>
        <polygon id="path-3" points="9.44444444e-05 0.814847458 50.7772056 0.814847458 50.7772056 56 9.44444444e-05 56"></polygon>
        <polygon id="path-5" points="0.471805714 0.324648649 32.7916286 0.324648649 32.7916286 34.2982973 0.471805714 34.2982973"></polygon>
    </defs>
    <g id="Page-1" stroke="none" stroke-width="1" fill="none" fill-rule="evenodd">
        <g id="刀锋PC端" transform="translate(-185.000000, -25.000000)">
            <g id="PClogo" transform="translate(185.000000, 25.000000)">
                <path d="M50.2881521,59.5417304 C46.2367011,57.4699235 43.5893495,53.9280753 42.4198975,49.0122425 C41.468062,45.0108299 41.8711256,41.5866981 41.8749102,41.551854 L41.9222181,41.1657446 L40.6108424,41.0037669 L40.5162265,41.0037669 L40.5096034,41.1158328 L33.1002357,41 L33.0727971,41.3653914 C32.9403349,43.1951736 32.8059804,48.0045909 34.444727,53.1690406 C36.4818064,59.5859918 40.4613493,64.3464391 46.2745475,67.3175986 C53.6498534,71.089229 62.5588824,73 72.7575255,73 L72.7650947,73 C82.3487348,73 91.0732628,71.3114773 96.7047985,69.894173 L97,69.8207181 L97,60.7565627 L96.5061052,60.8921719 C87.9585088,63.2201295 66.3454089,67.7517363 50.2881521,59.5417304" id="Fill-1" fill="#FE4B04"></path>
                <path d="M48.0757953,36.0575457 C53.9378808,38.3875927 56.4550245,42.7945436 57.5321932,46.2642057 L49.2898367,46.2642057 L49.2898367,55 L66.9651541,55 L66.9998409,50.6664513 C67.0054659,49.9964216 66.9492168,34.160383 51.2791771,27.9343769 C34.5235312,21.2764275 11.0639395,27.7329916 4.27187027,29.8701227 L4,29.9557586 L4,39.156433 L4.51374106,38.9804561 C17.1125843,34.6544358 36.0825666,31.2911127 48.0757953,36.0575457" id="Fill-3" fill="#FE4B04"></path>
                <g id="Group-7" transform="translate(49.000000, 0.000000)">
                    <mask id="mask-2" fill="white">
                        <use xlink:href="#path-1"></use>
                    </mask>
                    <g id="Clip-6"></g>
                    <path d="M1.27721455,0.282752542 L0.885796364,0.282752542 L0.885796364,9.09373559 L1.27721455,9.09373559 C24.2243418,9.09373559 42.9140873,27.8328542 42.94056,50.8687864 C42.9131418,51.9821424 42.8403418,53.6716339 42.7420145,54.9397017 L42.7098691,55.3630237 L51.5129964,55.3630237 L51.5385236,54.9966508 C51.6633236,53.1429559 51.7115418,51.2389559 51.7172145,51.0225492 L51.71816,50.9209898 C51.71816,22.9988203 29.0905964,0.282752542 1.27721455,0.282752542" id="Fill-5" fill="#201714" mask="url(#mask-2)"></path>
                </g>
                <path d="M49.3140959,77.2479815 C24.7004193,69.168232 25.4396394,47.6594991 25.8370291,43.4291893 L25.8775214,43 L17.1076397,43 L17.0840976,43.365711 C16.8863445,46.3728786 16.8703359,52.4241638 18.9806446,59.1481298 C21.7548389,67.9943566 28.7995598,79.7653238 46.6039359,85.6091201 C53.1683991,87.7645411 62.5955747,89 72.4662824,89 C76.3074021,89 80.0703622,88.8114599 83.6506361,88.4391168 L84,88.4021667 L84,79.5616246 L83.5668264,79.6108914 C71.7562544,80.9600428 57.671521,79.990814 49.3140959,77.2479815" id="Fill-8" fill="#201714"></path>
                <path d="M51.1190923,21.158602 C76.186811,28.8952217 75.5330266,50.3479274 75.1475583,54.5692878 L75.1088225,55 L83.9084581,55 L83.9311327,54.6293207 C84.1163087,51.570502 84.0841863,45.4137956 81.7770454,38.5376474 C78.8444634,29.8004795 71.5904799,18.2255665 53.6851016,12.698729 C40.8097061,8.72607627 26.0107484,10.0048721 18.3353952,11.1216745 L18,11.1702725 L18,20.0865861 L18.4516025,20.0141655 C30.3897811,18.102642 42.6019445,18.5304955 51.1190923,21.158602" id="Fill-10" fill="#201714"></path>
                <g id="Group-14" transform="translate(0.000000, 45.000000)">
                    <mask id="mask-4" fill="white">
                        <use xlink:href="#path-3"></use>
                    </mask>
                    <g id="Clip-13"></g>
                    <path d="M8.76737222,5.36128814 C8.76737222,4.66081356 8.80892778,3.00454237 8.96381667,1.24291525 L9.00159444,0.814847458 L0.199372222,0.814847458 L0.171983333,1.17837288 C0.00198333333,3.45064407 9.44444444e-05,5.28440678 9.44444444e-05,5.36128814 C9.44444444e-05,33.2834576 22.6034833,56.0004746 50.38715,56.0004746 L50.7772056,56.0004746 L50.7772056,47.1875932 L50.38715,47.1875932 C27.4380944,47.1875932 8.76737222,28.4247458 8.76737222,5.36128814" id="Fill-12" fill="#201714" mask="url(#mask-4)"></path>
                </g>
                <path d="M96.3300594,94.333927 C96.6805376,94.5609973 96.8811062,94.8628673 96.9369346,95.2404274 L96.567847,95.2404274 C96.5109848,94.9439003 96.3424658,94.7114871 96.0612561,94.5440784 C95.791419,94.3829029 95.4719566,94.30187 95.1090721,94.30187 C94.5590592,94.30187 94.1331093,94.4683882 93.8198501,94.8032057 C93.5262342,95.1157614 93.3814939,95.5200356 93.3814939,96.016919 C93.3814939,96.5120214 93.5262342,96.9162956 93.8136469,97.2181656 C94.1144999,97.5369546 94.5332127,97.69813 95.0718532,97.69813 C95.4533471,97.69813 95.7790127,97.6064114 96.055053,97.4336598 C96.3486689,97.2404274 96.5430344,96.9652716 96.6309124,96.6099733 L97,96.6099733 C96.9059188,97.0516474 96.6743345,97.4016028 96.2990437,97.6544969 C95.9547687,97.8815672 95.5474283,98 95.0780563,98 C94.4081158,98 93.8891186,97.8014248 93.512794,97.4069457 C93.168519,97.0463045 93,96.5823687 93,96.016919 C93,95.4505788 93.175756,94.9813001 93.5262342,94.6090828 C93.9077281,94.1994657 94.4391316,94 95.1163091,94 C95.5846472,94 95.9919876,94.1077471 96.3300594,94.333927" id="Fill-15" fill="#201714"></path>
                <path d="M94,92.3672042 C91.9972936,92.3672042 90.3671628,93.9975189 90.3671628,95.9995489 C90.3671628,98.0033833 91.9972936,99.6327958 94,99.6327958 C96.0036085,99.6327958 97.6328372,98.0033833 97.6328372,95.9995489 C97.6328372,93.9975189 96.0036085,92.3672042 94,92.3672042 M94,100 C91.7943166,100 90,98.2063832 90,95.9995489 C90,93.794519 91.7943166,92 94,92 C96.2056834,92 98,93.794519 98,95.9995489 C98,98.2063832 96.2056834,100 94,100" id="Fill-17" fill="#201714"></path>
                <polygon id="Fill-19" fill="#000000" points="142.652634 32.9919629 161.043114 32.9919629 162 25 135.276131 25 129 77 155.722006 77 156.71523 69.0080371 138.323818 69.0080371 140.285109 52.7638549 158.675589 52.7638549 159.567254 45.2677091 141.177706 45.2677091"></polygon>
                <path d="M187.008827,59.0331407 C187.008827,62.1325627 186.073455,64.7623184 184.224464,66.8536988 C182.392497,68.9902576 180.216267,70.0303005 177.571879,70.0303005 C175.060845,70.0303005 173.025536,69.250033 171.525536,67.7167933 C170.018916,66.1562583 169.254729,64.0507596 169.254729,61.4577114 C169.254729,58.3582893 170.156999,55.760535 171.936003,53.7397457 C173.724464,51.7104855 175.923392,50.7231506 178.658575,50.7231506 C181.149748,50.7231506 183.186003,51.4921235 184.711538,53.0103038 C186.236129,54.5284841 187.008827,56.5539795 187.008827,59.0331407 Z M191.771753,20 L188.254414,48.5771797 C186.645649,46.9347589 185.075662,45.7281209 183.580391,44.9826783 C181.919609,44.1459379 179.854035,43.7205086 177.440416,43.7205086 C172.738966,43.7205086 168.779004,45.3911658 165.671185,48.6854194 C162.571879,51.9712021 161,56.1483157 161,61.0972259 C161,65.7440059 162.43947,69.6011063 165.28058,72.563111 C168.125473,75.5072325 171.82913,77 176.288462,77 C178.248108,77 179.924968,76.7232827 181.283102,76.1745542 C182.405738,75.6898283 183.705233,74.840852 185.156999,73.6436262 L184.842055,76.2780878 L193.036255,76.2780878 L200,20 L191.771753,20 Z" id="Fill-21" fill="#000000"></path>
                <path d="M225.74416,59.8730159 C225.74416,62.8809806 224.812596,65.4078593 222.975631,67.3839839 C221.16763,69.3290403 218.820501,70.3156904 215.997778,70.3156904 C213.474052,70.3156904 211.420314,69.5145079 209.901033,67.9422697 C208.386424,66.2928317 207.618374,64.1293566 207.618374,61.5111563 C207.618374,58.5003672 208.519104,55.9716056 210.294401,53.995481 C212.079977,52.0099418 214.349554,51.0035211 217.039597,51.0035211 C219.628728,51.0035211 221.749741,51.8272986 223.343771,53.4550829 C224.936867,55.0593308 225.74416,57.2190401 225.74416,59.8730159 Z M226.479507,48.0407464 C225.031238,46.6417368 223.607263,45.6390819 222.248693,45.0610254 C220.781737,44.3568133 218.854138,44 216.51822,44 C211.66138,44 207.554837,45.6908622 204.313518,49.0245721 C201.095558,52.3328626 199.464153,56.5571937 199.464153,61.5770585 C199.464153,66.049935 200.874113,69.8402531 203.658527,72.8472764 C206.448547,75.7931047 210.03091,77.2872018 214.306573,77.2872018 C217.413344,77.2872018 220.424809,76.2911371 223.272759,74.3253686 L222.884997,77.4811426 C222.487891,80.8101452 221.546984,83.2598241 220.088437,84.7623943 C218.645774,86.2442524 216.492992,86.9964789 213.688957,86.9964789 C211.098891,86.9964789 209.17503,86.3751153 207.971565,85.1521588 C206.758757,83.9197876 206.05985,81.8890584 205.893533,79.1136342 L205.86737,78.6720895 L198,78.6720895 L198,79.1428195 C198,81.8787023 198.317685,84.0459432 198.940908,85.5692256 C199.573474,87.254439 200.692846,88.7758384 202.263517,90.0882336 C205.30675,92.6838389 209.325463,94 214.209399,94 C218.945706,94 222.858835,92.6367659 225.842269,89.9441903 C227.38304,88.5282344 228.561277,86.8044211 229.345211,84.8217063 C229.721761,83.8604756 230.063739,82.6657629 230.358999,81.272402 C230.65239,79.8978704 230.922422,78.2521983 231.162555,76.3815173 L235,44.7522266 L226.870072,44.7522266 L226.479507,48.0407464 Z" id="Fill-23" fill="#000000"></path>
                <g id="Group-27" transform="translate(237.000000, 43.000000)">
                    <mask id="mask-6" fill="white">
                        <use xlink:href="#path-5"></use>
                    </mask>
                    <g id="Clip-26"></g>
                    <path d="M9.34974857,13.5943784 C10.64712,9.40194595 13.1739771,7.36248649 17.0585486,7.36248649 C21.1618629,7.36248649 23.56992,9.40194595 24.4043486,13.5943784 L9.34974857,13.5943784 Z M28.6358914,4.96167568 C25.90632,1.88451351 22.1330057,0.324648649 17.4196629,0.324648649 C12.5592343,0.324648649 8.47949143,2.04721622 5.29357714,5.446 C2.09446286,8.85708108 0.471805714,13.1535676 0.471805714,18.2172162 C0.471805714,23.068027 1.95492,27.0022162 4.87872,29.9119459 C7.79969143,32.8226216 11.7662914,34.2982973 16.6644343,34.2982973 C19.7447486,34.2982973 22.3564629,33.7591081 24.4260343,32.6987027 C26.4748629,31.6600541 28.4840914,29.8182973 30.4018629,27.2245135 L30.7224343,26.7903243 L24.46752,23.3291081 L24.22332,23.6705946 C22.4856343,26.1082973 20.0558914,27.2926216 16.7954914,27.2926216 C14.4572057,27.2926216 12.5102057,26.5926216 11.0129486,25.2134324 C9.63354857,23.9269459 8.91037714,22.3491081 8.81137714,20.4014054 L32.6675486,20.4014054 L32.6920629,19.9549189 C32.7590057,18.7441081 32.7920057,17.8955946 32.7920057,17.3601892 C32.7920057,12.2151892 31.3928057,8.04356757 28.6358914,4.96167568 Z" id="Fill-25" fill="#000000" mask="url(#mask-6)"></path>
                </g>
            </g>
        </g>
    </g>
</svg>