<?xml version="1.0" encoding="UTF-8"?>
<svg width="92px" height="81px" viewBox="0 0 92 81" version="1.1" xmlns="http://www.w3.org/2000/svg" xmlns:xlink="http://www.w3.org/1999/xlink">
    <!-- Generator: Sketch 49.3 (51167) - http://www.bohemiancoding.com/sketch -->
    <title>pcqudo@3x</title>
    <desc>Created with Sketch.</desc>
    <defs></defs>
    <g id="Page-1" stroke="none" stroke-width="1" fill="none" fill-rule="evenodd">
        <g id="刀锋PC端" transform="translate(-638.000000, -1498.000000)" fill="#FFF" fill-rule="nonzero">
            <g id="pcqudo" transform="translate(638.000000, 1498.000000)">
                <path d="M64.9427484,25.2725204 C64.4913511,24.6943665 63.6569299,24.5917622 63.0790164,25.0433473 C62.5011029,25.4949324 62.3985412,26.3297009 62.8499385,26.9078549 C65.5649351,30.399209 67.0355583,34.5130089 67.2900892,38.677736 L55.7174161,38.677736 C55.3707674,36.1222753 54.034085,33.8054789 51.9956082,32.2269358 L57.7819448,22.1999024 C58.2231318,22.4941494 58.6530062,22.7997137 59.0715682,23.1279123 C59.4454127,23.4190258 59.9461019,23.4884992 60.385031,23.3101624 C60.8239601,23.1318257 61.1344453,22.7327723 61.19953,22.263322 C61.2646146,21.7938717 61.0744107,21.325345 60.7005662,21.0342315 C51.1443665,13.6267039 37.5739422,14.4799046 29.0199493,23.0260575 C20.4790836,31.5850865 19.6286663,45.1610683 27.034608,54.7198577 C27.3256004,55.0938578 27.7939322,55.2841408 28.2631873,55.2190291 C28.7324423,55.1539174 29.1313296,54.8433029 29.3095922,54.4041912 C29.4878548,53.9650794 29.4184103,53.4641819 29.1274179,53.0901819 C26.491869,49.7062551 24.9437315,45.6024767 24.6872671,41.3203007 L36.2599403,41.3203007 C36.6106273,43.9345724 37.9907506,46.2206454 39.9817482,47.7711009 L34.1897553,57.7981343 C33.7504553,57.5047699 33.3221724,57.1952209 32.9057882,56.8701245 C32.3278747,56.420102 31.4947197,56.523973 31.0448843,57.102127 C30.595049,57.6802809 30.6988768,58.5137827 31.2767902,58.9638052 C35.4768265,62.2346456 40.6491396,64.0072685 45.9717095,63.9999563 C55.1395062,64.0174093 63.515122,58.8046082 67.5509717,50.5694928 C71.5868215,42.3343774 70.5766803,32.5179933 64.9484047,25.278179 L64.9427484,25.2725204 Z M55.4968226,20.8757908 L49.7104861,30.9028242 C47.3265245,29.9200069 44.6508319,29.9200069 42.2668703,30.9028242 L36.48619,20.8814494 C42.4252451,17.9333205 49.4955488,17.8823931 55.4911664,20.8757908 L55.4968226,20.8757908 Z M30.8921657,24.899053 C31.9159457,23.8805056 33.0245693,22.9751302 34.1897553,22.205561 L39.9760919,32.2325944 C37.940163,33.8084416 36.6037536,36.1207012 36.254284,38.6720774 L24.6872671,38.6720774 C25.0080113,33.4766901 27.2169297,28.5780155 30.8978219,24.899053 L30.8921657,24.899053 Z M38.8109059,40.0018477 C38.8109059,36.04083 42.0349644,32.8154298 45.9886782,32.8154298 C49.8157688,33.0016785 52.8230772,36.1601492 52.8230772,39.9933598 C52.8230772,43.8265703 49.8157688,46.985041 45.9886782,47.1712897 C42.0293081,47.1769483 38.8109059,43.9572068 38.8109059,40.0018477 Z M36.4805338,59.1279045 L42.2668703,49.0952126 C44.6508319,50.0780298 47.3265245,50.0780298 49.7104861,49.0952126 L55.4911664,59.1165873 C49.5521113,62.0647162 42.4818076,62.1156436 36.48619,59.1222459 L36.4805338,59.1279045 Z M61.0851907,55.0989837 C60.0614107,56.1175311 58.9527871,57.0229066 57.787601,57.7924757 L52.0012645,47.7654423 C53.992262,46.2206454 55.3723853,43.9345724 55.7230724,41.3259593 L67.2900892,41.3259593 C66.9693451,46.5213466 64.7604267,51.4200212 61.0795345,55.0989837 L61.0851907,55.0989837 Z" id="Shape"></path>
                <path d="M90.2771496,36.6018223 C89.1732901,35.6086503 87.70136,35.126765 86.2233031,35.2746609 L77.2990906,36.1651804 C76.1627806,28.0223013 71.892578,20.6433481 65.3963072,15.5970505 L70.640432,8.31202575 C71.9523298,6.46794691 71.9377859,3.99245083 70.6043109,2.16388773 C69.2708358,0.335324627 66.9168848,-0.437040951 64.758042,0.245641843 C63.3451019,0.701591286 62.1904,1.73222726 61.5782163,3.08381396 L57.8923785,11.253613 C54.1167971,9.71665979 50.0780074,8.92831596 46.0010953,8.93251682 C41.7977453,8.93251682 37.7783995,9.75409296 34.1098122,11.253613 L30.4239744,3.08381396 C29.4828676,1.02378685 27.3283751,-0.203761882 25.0747173,0.0360085639 C22.8210595,0.27577901 20.9735856,1.92910368 20.4877378,4.14094689 C20.1774403,5.59224563 20.4948441,7.10698779 21.3617586,8.31202575 L26.6001334,15.5970505 C20.1060167,20.6443665 15.837956,28.0231831 14.7031001,36.1651804 L5.7788876,35.2746609 C4.30202686,35.1323899 2.83351624,35.6183945 1.7336818,36.6134247 C0.633847347,37.6084549 0.00447760826,39.0204215 0,40.5028726 C0.00269944696,41.9859089 0.631541116,43.3989699 1.73180647,44.3943899 C2.83207182,45.3898099 4.30162012,45.8751813 5.7788876,45.7310844 L14.7031001,44.8348196 C15.8531275,53.1654867 20.2634825,60.4620021 26.6058835,65.4029495 L21.3617586,72.6879742 C20.0498609,74.5320531 20.0644048,77.0075492 21.3978798,78.8361123 C22.7313549,80.6646754 25.0853059,81.437041 27.2441487,80.7543582 C28.6570888,80.2984087 29.8117907,79.2677727 30.4239744,77.916186 L34.1098122,69.746387 C37.7841497,71.2401618 41.7977453,72.0674832 46.0010953,72.0674832 C50.2044454,72.0674832 54.2237911,71.245907 57.8923785,69.746387 L61.5782163,77.916186 C62.5193231,79.9762131 64.6738155,81.2037619 66.9274733,80.9639914 C69.1811311,80.724221 71.028605,79.0708963 71.5144528,76.8590531 C71.8247503,75.4077544 71.5073466,73.8930122 70.640432,72.6879742 L65.4020573,65.4029495 C71.896174,60.3556335 76.1642347,52.9768169 77.2990906,44.8348196 L86.2233031,45.7253391 C87.7001521,45.8781759 89.1722786,45.3955417 90.2713995,44.3981777 C91.3721958,43.4006275 92,41.9848623 92,40.5 C92,39.0151377 91.3721958,37.5993725 90.2713995,36.6018223 L90.2771496,36.6018223 Z M64.0335247,4.19265448 C64.3283129,3.52998208 64.8937365,3.02571478 65.5860617,2.80804015 C66.2755506,2.58145461 67.0291649,2.66093571 67.656111,3.02636108 C68.2873309,3.38575716 68.7334623,3.99893217 68.8808901,4.70973037 C69.0356182,5.41545262 68.8807488,6.15359883 68.45538,6.73781693 L63.205505,14.0343323 C62.2808009,13.4293011 61.3249645,12.8731589 60.3419368,12.3681989 L64.0335247,4.19265448 Z M23.5525608,6.73781693 C23.1251896,6.15449746 22.9682107,5.41627324 23.1213005,4.70973037 C23.2687283,3.99893217 23.7148598,3.38575716 24.3460797,3.02636108 C24.9730258,2.66093571 25.7266401,2.58145461 26.416129,2.80804015 C27.1073269,3.0244225 27.6725575,3.52642604 27.968666,4.18690919 L31.6602539,12.3739441 C30.6773054,12.8769514 29.7214671,13.431177 28.7966857,14.0343323 L23.5468107,6.73781693 L23.5525608,6.73781693 Z M5.50863117,43.0480351 C4.78658821,43.1252843 4.06613325,42.8888228 3.53058407,42.3988176 C2.99231516,41.9158314 2.68673349,41.2257156 2.69106408,40.5028726 C2.68673349,39.7800297 2.99231516,39.0899139 3.53058407,38.6069277 C4.06516067,38.114846 4.78573174,37.8762535 5.50863117,37.9519649 L14.4443439,38.8424845 C14.3867224,39.9467449 14.3867224,41.0532551 14.4443439,42.1575155 L5.50863117,43.0480351 Z M27.9629158,76.8073455 C27.6681276,77.4700179 27.102704,77.9742852 26.4103789,78.1919599 C25.72089,78.4185454 24.9672757,78.3390643 24.3403296,77.9736389 C23.7091096,77.6142428 23.2629782,77.0010678 23.1155504,76.2902696 C22.9608223,75.5845474 23.1156918,74.8464012 23.5410605,74.2621831 L28.7909355,66.9656677 C29.7109575,67.5689229 30.6712303,68.1204705 31.6545037,68.6318011 L27.9629158,76.8073455 Z M68.4438797,74.2621831 C68.87514,74.8539477 69.0246436,75.577854 68.87514,76.2960149 C68.7262039,77.0046836 68.2802577,77.6155122 67.6503608,77.9736389 C67.0236515,78.3397855 66.2697196,78.4193001 65.5803115,78.1919599 C64.8891137,77.9755775 64.323883,77.473574 64.0277746,76.8130908 L60.3361867,68.6260559 C61.3194601,68.1262158 62.279733,67.5689229 63.1997549,66.9656677 L68.4496299,74.2621831 L68.4438797,74.2621831 Z M46.0010953,69.3786885 C30.0478433,69.3596937 17.119918,56.4426709 17.1009072,40.5028726 C17.1167499,24.5608308 30.0456013,11.6403124 46.0010953,11.6213115 C61.9565894,11.6403124 74.8854408,24.5608308 74.9012835,40.5028726 C74.8822726,56.4426709 61.9543473,69.3596937 46.0010953,69.3786885 Z M88.4658565,42.3988176 C87.9303073,42.8888228 87.2098523,43.1252843 86.4878094,43.0480351 L77.5520966,42.1575155 C77.6097182,41.0532551 77.6097182,39.9467449 77.5520966,38.8424845 L86.4878094,37.9519649 C87.2098523,37.8747157 87.9303073,38.1111772 88.4658565,38.6011824 C89.0041254,39.0841686 89.3097071,39.7742844 89.3053765,40.4971274 C89.3113574,41.2219684 89.0056324,41.9145002 88.4658565,42.3988176 Z" id="Shape"></path>
            </g>
        </g>
    </g>
</svg>