<?xml version="1.0" encoding="UTF-8"?>
<svg width="70px" height="70px" viewBox="0 0 70 70" version="1.1" xmlns="http://www.w3.org/2000/svg" xmlns:xlink="http://www.w3.org/1999/xlink">
    <!-- Generator: Sketch 49.3 (51167) - http://www.bohemiancoding.com/sketch -->
    <title>pcspfw</title>
    <desc>Created with Sketch.</desc>
    <defs></defs>
    <g id="Page-1" stroke="none" stroke-width="1" fill="none" fill-rule="evenodd">
        <g id="刀锋PC端" transform="translate(-721.000000, -2594.000000)" fill="#E15100" fill-rule="nonzero">
            <g id="Group" transform="translate(315.000000, 2594.000000)">
                <g id="pcspfw" transform="translate(419.000000, 15.000000)">
                    <path d="M42.32925,21.7422089 C42.309,21.7671089 42.291,21.7942725 42.27075,21.8191725 C42.11325,22.0296905 41.949,22.2379448 41.77575,22.4416719 C41.67225,22.5639082 41.55975,22.6725626 41.43825,22.7653717 L24.23475,42.1783007 L24.17625,42.2416825 C24.17175,42.250737 24.16275,42.2530006 24.156,42.2620552 C24.10425,42.3163824 24.057,42.3729733 23.9985,42.4227732 C23.90175,42.511055 23.79825,42.5880185 23.6925,42.6559276 C23.5665,42.7351548 23.436,42.7985365 23.30325,42.8506001 C23.301,42.8506001 23.301,42.8528638 23.29875,42.8528638 C23.2965,42.8528638 23.29425,42.8551274 23.292,42.8551274 C23.28975,42.857391 23.28525,42.857391 23.283,42.8596547 L23.28075,42.8596547 C23.02875,42.9524637 22.76325,43 22.5,43 C22.25025,43 21.99825,42.9569909 21.75975,42.8755001 C21.75975,42.8732365 21.75975,42.8732365 21.75975,42.8732365 C21.7575,42.8732365 21.75525,42.8732365 21.753,42.8709728 C21.60675,42.8189092 21.465,42.7532638 21.33,42.6695094 C21.32775,42.6695094 21.3255,42.6672457 21.32325,42.6649821 L21.321,42.6649821 C21.2085,42.5948094 21.10275,42.5155822 20.99925,42.4227732 C20.943,42.3729733 20.89575,42.3163824 20.844,42.2620552 C20.83725,42.2530006 20.82825,42.250737 20.8215,42.2416825 L20.763,42.1737734 L3.357,22.5367446 C3.23775,22.4394083 3.1275,22.3284902 3.02625,22.2017267 C2.9835,22.1496631 2.95425,22.0862813 2.9115,22.0319541 L2.8215,21.9323542 C2.76075,21.8621815 2.7405,21.7761634 2.68875,21.7037271 C0.972,19.36992 0,16.533586 0,13.6134976 C0,6.10728574 6.05475,0 13.5,0 C14.23125,0 14.967,0.0611181301 15.687,0.178827121 C16.91325,0.380290587 17.748,1.54606233 17.54775,2.78200674 C17.36775,3.89571489 16.40925,4.68798694 15.32925,4.68798694 C15.21,4.68798694 15.0885,4.67893241 14.967,4.6585597 C14.48775,4.57933249 13.99725,4.53858707 13.5,4.53858707 C8.5365,4.53858707 4.5,8.60860181 4.5,13.6134976 C4.5,15.5692777 5.0985,17.4118762 6.23475,18.9715203 L22.5,37.3273321 L38.7675,18.9692567 C39.888,17.4209307 40.5,15.5443778 40.5,13.6134976 C40.5,8.60860181 36.4635,4.53858707 31.5,4.53858707 C29.169,4.53858707 26.92125,5.45988629 25.2495,7.08291219 C25.1685,7.1621394 25.0875,7.24363024 25.00875,7.32512108 C24.9705,7.3658665 24.93,7.40887555 24.89175,7.44962097 C24.83325,7.51300274 24.7725,7.57412087 24.70725,7.63071173 L15.29325,17.122131 C14.8545,17.5658033 14.2785,17.7876395 13.7025,17.7876395 C13.1265,17.7876395 12.5505,17.5658033 12.11175,17.122131 C11.232,16.2370499 11.232,14.799642 12.11175,13.914561 L21.852,4.09038745 L22.0455,3.89571489 L22.1895,3.75084228 C22.2435,3.69651506 22.29975,3.6467151 22.356,3.59917877 C24.83775,1.30158981 28.11375,0 31.5,0 C38.94525,0 45,6.10728574 45,13.6134976 C45,16.5471678 44.05725,19.4016109 42.32925,21.7422089 Z M22.49775,43 C22.25025,43 22.0005,42.9592546 21.75975,42.8755001 C21.99825,42.9569909 22.25025,43 22.5,43 C22.5,43 22.5,43 22.49775,43 Z" id="Shape"></path>
                </g>
            </g>
        </g>
    </g>
</svg>