<?xml version="1.0" encoding="UTF-8"?>
<svg width="70px" height="70px" viewBox="0 0 70 70" version="1.1" xmlns="http://www.w3.org/2000/svg" xmlns:xlink="http://www.w3.org/1999/xlink">
    <!-- Generator: Sketch 49.3 (51167) - http://www.bohemiancoding.com/sketch -->
    <title>pctjfx</title>
    <desc>Created with Sketch.</desc>
    <defs></defs>
    <g id="Page-1" stroke="none" stroke-width="1" fill="none" fill-rule="evenodd">
        <g id="刀锋PC端" transform="translate(-1334.000000, -2594.000000)" fill="#E15100" fill-rule="nonzero">
            <g id="Group" transform="translate(315.000000, 2594.000000)">
                <g id="pcyxtggj" transform="translate(1034.000000, 14.000000)">
                    <path d="M27.5883644,0 L27.363337,0 C26.5982437,0 26.0131723,0.626430801 26.0131723,1.34235172 L26.0131723,4.51925078 C26.0131723,5.27991675 26.5982437,5.8616025 27.363337,5.8616025 L27.5883644,5.8616025 C28.3534577,5.8616025 28.9835346,5.27991675 28.9835346,4.51925078 L28.9835346,1.34235172 C28.9835346,0.626430801 28.3534577,1.55240602e-16 27.5883644,0 Z M36.4094402,14.8106139 L39.6498353,14.8106139 C40.4149286,14.8106139 41,14.1841831 41,13.4682622 L41,13.2445369 C41,12.483871 40.3699232,11.9021852 39.6498353,11.9021852 L36.4094402,11.9021852 C35.6443469,11.9021852 35.0592755,12.483871 35.0592755,13.2445369 L35.0592755,13.4682622 C35.01427,14.2289282 35.6443469,14.8106139 36.4094402,14.8106139 Z M40.0098793,1.11862643 L39.8298573,0.939646202 C39.2897914,0.402705515 38.4346872,0.402705515 37.8946213,0.939646202 L33.349067,5.45889698 C32.8090011,5.99583767 32.8090011,6.84599376 33.349067,7.38293444 L33.5290889,7.56191467 C34.0691548,8.09885536 34.9242591,8.09885536 35.4643249,7.56191467 L40.0098793,3.04266389 C40.5049396,2.5057232 40.5049396,1.65556712 40.0098793,1.11862643 Z M23.1328211,27.8761707 L37.7145993,22.5067638 C39.2447859,21.925078 39.6948408,19.9562955 38.5246981,18.8376691 L21.8726674,2.5057232 C20.7025247,1.38709677 18.7672887,1.78980229 18.1822173,3.31113424 L12.6015368,17.6295525 C12.4665203,17.942768 12.2864984,18.2112383 12.0614709,18.4349636 L8.37102086,22.1040583 C7.47091109,22.9989594 7.47091109,24.3860562 8.37102086,25.2809573 L16.9220637,33.7377732 L22.4577387,39.1966701 C22.9978046,39.7336108 23.8529089,39.7336108 24.3929748,39.1966701 L24.5729967,39.0176899 C25.1130626,38.4807492 25.1130626,37.6305931 24.5729967,37.0936524 L19.0823271,31.5900104 L22.3227223,28.3683663 C22.5477497,28.1893861 22.8177827,28.0104058 23.1328211,27.8761707 Z M15.3918771,18.748179 L20.2974753,6.08532778 C20.4324918,5.77211238 20.7925357,5.68262227 21.0625686,5.90634755 L35.01427,19.5983351 C35.2392975,19.8220604 35.1492865,20.2247659 34.8342481,20.359001 L22.0076839,25.2362123 C21.6926454,25.3704475 21.4226125,25.5046826 21.1975851,25.7284079 L17.8221734,29.0842872 C17.4621295,29.4422477 16.8770582,29.4422477 16.5170143,29.0842872 L11.521405,24.1623309 C11.1613611,23.8043704 11.1613611,23.2226847 11.521405,22.8647242 L14.8518112,19.5983351 C15.1218441,19.3298647 15.3018661,19.0613944 15.3918771,18.748179 Z M15.66191,35.0353798 L7.11086718,26.578564 C6.2557629,25.7284079 4.81558727,25.7284079 3.96048299,26.578564 L0.675082327,29.8449532 C-0.225027442,30.7398543 -0.225027442,32.1269511 0.675082327,33.0218522 L7.65093304,39.9125911 C8.50603732,40.7627471 9.94621295,40.7627471 10.8013172,39.9125911 L12.9615807,37.7648283 C13.3216246,37.4068678 13.9066959,37.4068678 14.2667398,37.7648283 L19.1273326,42.5972945 C19.6673985,43.1342352 20.5225027,43.1342352 21.0625686,42.5972945 L21.2425906,42.4183143 C21.7826564,41.8813736 21.7826564,41.0312175 21.2425906,40.4942768 L15.66191,35.0353798 Z M8.64105379,36.6014568 L3.9154775,31.9479709 C3.55543359,31.5900104 3.55543359,31.0083247 3.9154775,30.6503642 L4.72557629,29.8449532 C5.0856202,29.4869927 5.67069155,29.4869927 6.03073546,29.8449532 L10.7563117,34.4984391 C11.1163557,34.8563996 11.1163557,35.4380853 10.7563117,35.7960458 L9.94621295,36.6014568 C9.58616905,36.9594173 9.00109769,36.9594173 8.64105379,36.6014568 Z" id="Shape"></path>
                </g>
            </g>
        </g>
    </g>
</svg>