<?xml version="1.0" encoding="UTF-8"?>
<svg width="82px" height="82px" viewBox="0 0 82 82" version="1.1" xmlns="http://www.w3.org/2000/svg" xmlns:xlink="http://www.w3.org/1999/xlink">
    <!-- Generator: Sketch 49.3 (51167) - http://www.bohemiancoding.com/sketch -->
    <title>pcyingiao@3x</title>
    <desc>Created with Sketch.</desc>
    <defs></defs>
    <g id="Page-1" stroke="none" stroke-width="1" fill="none" fill-rule="evenodd">
        <g id="刀锋PC端" transform="translate(-372.000000, -1771.000000)" fill="#FFF" fill-rule="nonzero" stroke="#FFF">
            <g id="pcyingiao" transform="translate(373.000000, 1772.000000)">
                <path d="M36.4999999,69.826087 C18.1230434,69.826087 3.17391292,54.8769565 3.17391292,36.5 C3.17391292,18.1230435 18.1230434,3.17391302 36.4999999,3.17391302 C54.8769564,3.17391302 69.8260869,18.1230435 69.8260869,36.5 C69.8260869,37.376 70.5354565,38.0869566 71.4130434,38.0869566 C72.2906304,38.0869566 73,37.376 73,36.5 C73,16.3742173 56.6257826,0 36.5,0 C16.3742174,0 0,16.3742174 0,36.5 C0,56.6257826 16.3742174,73 36.5,73 C37.376,73 38.0869566,72.2906304 38.0869566,71.4130434 C38.0869566,70.5354565 37.3759999,69.826087 36.4999999,69.826087 Z" id="Shape"></path>
                <path d="M37,25 C30.3830054,25 25,30.3830054 25,37 C25,43.6169946 30.3830054,49 37,49 C43.6169946,49 49,43.6169946 49,37 C49,30.3830054 43.6153202,25 37,25 Z M37,45.6496442 C32.2298033,45.6496442 28.3486814,41.7685224 28.3486814,36.9983256 C28.3486814,32.2281289 32.2298032,28.3470071 37,28.3470071 C41.7701967,28.3470071 45.6513186,32.2281288 45.6513186,36.9983256 C45.6496442,41.7701967 41.7701968,45.6496442 37,45.6496442 Z" id="Shape"></path>
                <path d="M79.5372538,77.3047538 L52.6940273,50.4627523 C52.0770323,49.8457492 51.0797413,49.8457492 50.4627463,50.4627523 C49.8457512,51.0797555 49.8457512,52.0770597 50.4627463,52.6940628 L77.3059727,79.5376422 C77.6136812,79.8453548 78.0176472,80 78.4216132,80 C78.8255791,80 79.2295452,79.8453548 79.5372537,79.5376422 C80.1542488,78.9206392 80.1542488,77.9217569 79.5372538,77.3047538 Z" id="Shape"></path>
            </g>
        </g>
    </g>
</svg>