<?xml version="1.0" encoding="UTF-8"?>
<svg width="70px" height="70px" viewBox="0 0 70 70" version="1.1" xmlns="http://www.w3.org/2000/svg" xmlns:xlink="http://www.w3.org/1999/xlink">
    <!-- Generator: Sketch 49.3 (51167) - http://www.bohemiancoding.com/sketch -->
    <title>pcyionghutiy@3x</title>
    <desc>Created with Sketch.</desc>
    <defs></defs>
    <g id="Page-1" stroke="none" stroke-width="1" fill="none" fill-rule="evenodd">
        <g id="刀锋PC端" transform="translate(-1205.000000, -1501.000000)" fill="#FFF" fill-rule="nonzero">
            <g id="pcyionghutiy" transform="translate(1205.000000, 1501.000000)">
                <path d="M53.2777778,20.0277778 C53.2777778,14.5833333 51.1388889,9.72222222 47.25,5.83333333 C43.3611111,2.13888889 38.3055556,0 32.6666667,0 C27.2222222,0 21.9722222,2.13888889 18.0833333,5.83333333 C14.1944444,9.52777778 12.0555556,14.5833333 12.0555556,20.0277778 C12.0555556,24.1111111 13.4166667,28.1944444 15.75,31.5 C16.5277778,32.4722222 17.6944444,32.6666667 18.6666667,32.0833333 C19.6388889,31.5 19.8333333,30.1388889 19.25,29.1666667 C17.3055556,26.4444444 16.3333333,23.3333333 16.3333333,20.0277778 C16.3333333,11.2777778 23.5277778,4.08333333 32.4722222,4.08333333 C41.4166667,4.08333333 48.6111111,11.2777778 48.6111111,20.0277778 C48.6111111,28.7777778 41.4166667,35.9722222 32.4722222,35.9722222 C28,35.9722222 23.7222222,36.75 19.8333333,38.5 C15.9444444,40.0555556 12.4444444,42.3888889 9.52777778,45.3055556 C6.61111111,48.2222222 4.08333333,51.7222222 2.52777778,55.4166667 C0.777777778,59.3055556 0,63.5833333 0,67.8611111 C0,69.0277778 0.972222222,70 2.13888889,70 C3.30555556,70 4.27777778,69.0277778 4.27777778,67.8611111 C4.27777778,52.5 17.1111111,40.0555556 32.6666667,40.0555556 C38.1111111,40.0555556 43.3611111,37.9166667 47.25,34.2222222 C51.1388889,30.5277778 53.2777778,25.4722222 53.2777778,20.0277778 Z M36.5555556,46.2777778 C36.5555556,47.4444444 37.5277778,48.4166667 38.6944444,48.4166667 L67.8611111,48.4166667 C69.0277778,48.4166667 70,47.4444444 70,46.2777778 C70,45.1111111 69.0277778,44.1388889 67.8611111,44.1388889 L38.6944444,44.1388889 C37.5277778,44.1388889 36.5555556,45.1111111 36.5555556,46.2777778 Z M67.8611111,54.8333333 L38.6944444,54.8333333 C37.5277778,54.8333333 36.5555556,55.8055556 36.5555556,56.9722222 C36.5555556,58.1388889 37.5277778,59.1111111 38.6944444,59.1111111 L67.8611111,59.1111111 C69.0277778,59.1111111 70,58.1388889 70,56.9722222 C70,55.8055556 69.0277778,54.8333333 67.8611111,54.8333333 Z M67.8611111,65.5277778 L38.6944444,65.5277778 C37.5277778,65.5277778 36.5555556,66.5 36.5555556,67.6666667 C36.5555556,68.8333333 37.5277778,69.8055556 38.6944444,69.8055556 L67.8611111,69.8055556 C69.0277778,69.8055556 70,68.8333333 70,67.6666667 C70,66.5 69.0277778,65.5277778 67.8611111,65.5277778 Z" id="Shape"></path>
            </g>
        </g>
    </g>
</svg>