<?xml version="1.0" encoding="UTF-8"?>
<svg width="70px" height="70px" viewBox="0 0 70 70" version="1.1" xmlns="http://www.w3.org/2000/svg" xmlns:xlink="http://www.w3.org/1999/xlink">
    <!-- Generator: Sketch 49.3 (51167) - http://www.bohemiancoding.com/sketch -->
    <title>pcyxtggj</title>
    <desc>Created with Sketch.</desc>
    <defs></defs>
    <g id="Page-1" stroke="none" stroke-width="1" fill="none" fill-rule="evenodd">
        <g id="刀锋PC端" transform="translate(-1539.000000, -2594.000000)" fill="#E15100" fill-rule="nonzero">
            <g id="Group" transform="translate(315.000000, 2594.000000)">
                <g id="pcguangtt" transform="translate(1234.000000, 19.000000)">
                    <path d="M0,0 L0,30.6835443 L51,30.6835443 L51,0 L0,0 Z M48.1185,27.8227848 L2.8815,27.8227848 L2.8815,2.86075949 L48.1185,2.86075949 L48.1185,27.8227848 Z M15.4785,18.3291139 L20.1705,18.3291139 L21.9045,23.8734177 L24.99,23.8734177 L19.3035,6.75949367 L16.3455,6.75949367 L10.6845,23.8734177 L13.7445,23.8734177 L15.4785,18.3291139 Z M19.278,15.4683544 L16.3455,15.4683544 L17.799,10.7594937 C17.8245,10.7594937 19.278,15.4683544 19.278,15.4683544 Z M40.749,15.4683544 L40.749,15.2151899 C40.749,10.556962 36.924,6.75949367 32.232,6.75949367 L26.265,6.75949367 L26.265,23.8735436 L32.232,23.8734177 C36.9495,23.8987342 40.749,20.1012658 40.749,15.4683544 Z M29.1465,9.64556962 L32.2575,9.64556962 C35.3685,9.64556962 37.893,12.1518987 37.893,15.2405063 L37.893,15.4683544 C37.893,18.556962 35.3685,21.0632911 32.2575,21.0632911 L29.1465,21.0632911 L29.1465,9.64556962 Z M1.428,33.1392405 L49.572,33.1392405 L49.572,36 L1.428,36 L1.428,33.1392405 Z" id="Shape"></path>
                </g>
            </g>
        </g>
    </g>
</svg>