<?xml version="1.0" encoding="UTF-8"?>
<svg width="70px" height="70px" viewBox="0 0 70 70" version="1.1" xmlns="http://www.w3.org/2000/svg" xmlns:xlink="http://www.w3.org/1999/xlink">
    <!-- Generator: Sketch 49.3 (51167) - http://www.bohemiancoding.com/sketch -->
    <title>pczaf</title>
    <desc>Created with Sketch.</desc>
    <defs></defs>
    <g id="Page-1" stroke="none" stroke-width="1" fill="none" fill-rule="evenodd">
        <g id="刀锋PC端" transform="translate(-513.000000, -2594.000000)" fill="#E15100" fill-rule="nonzero">
            <g id="Group" transform="translate(315.000000, 2594.000000)">
                <g id="pclldr" transform="translate(208.000000, 15.000000)">
                    <path d="M51.8959283,24.3305176 L40.9700162,24.3152278 C40.3808147,24.4742863 39.7752682,24.1221733 39.6176548,23.5288401 L37.9701924,18.2515692 L32.8100374,42.6563011 C32.8100374,42.6563011 32.7048507,43.9434431 32.0147989,43.9434431 C31.3246915,43.9434431 30.1575745,43.9630453 30.1575745,43.9630453 C29.5873867,44.1169513 29.0013542,43.7760956 28.8485221,43.2014686 L22.4456402,11.3716715 L17.5917054,34.3675032 C17.4355931,34.9442024 16.7673348,35.4251864 16.1843044,35.2707204 L14.4668472,35.2942432 C13.8645808,35.4537498 13.2458581,35.1004046 13.0844643,34.5049992 L9.84719201,24.3305176 L1.10412729,24.3305176 C0.494411075,24.3305176 0,23.8325635 0,23.2182839 L0,20.9937047 C0,20.3794811 0.494466671,19.8813591 1.10412729,19.8813591 L11.9731096,19.8455149 C12.6334733,19.8243444 13.1940987,19.9002333 13.3554925,20.4958627 L15.0391476,25.7880874 L19.7781665,0.825866546 C19.7781665,0.825866546 20.0129464,0.068154249 20.772159,0.068154249 C21.5312048,0.068154249 23.1268522,0.0369586138 23.1268522,0.0369586138 C23.6973736,-0.116947321 24.2834061,0.223852393 24.4362938,0.798479354 L30.781968,32.3832479 L35.473119,9.69713232 C35.6258956,9.12244935 36.0742179,8.64264144 36.6444057,8.79654737 L38.5303174,8.77336067 C39.1193521,8.61430214 39.7247318,8.96641517 39.8826787,9.55997234 L43.1044399,19.8813591 L51.8958171,19.8813591 C52.5058113,19.8813591 53,20.3795371 53,20.9937047 L53,23.2182839 C53.0000556,23.8327315 52.5058113,24.3305176 51.8959283,24.3305176 Z" id="Shape"></path>
                </g>
            </g>
        </g>
    </g>
</svg>