<?xml version="1.0" encoding="UTF-8"?>
<svg width="38px" height="311px" viewBox="0 0 38 311" version="1.1" xmlns="http://www.w3.org/2000/svg" xmlns:xlink="http://www.w3.org/1999/xlink">
    <!-- Generator: Sketch 49.3 (51167) - http://www.bohemiancoding.com/sketch -->
    <title>PECULIARITY</title>
    <desc>Created with Sketch.</desc>
    <defs></defs>
    <g id="Page-1" stroke="none" stroke-width="1" fill="none" fill-rule="evenodd">
        <g id="刀锋PC端" transform="translate(-1265.000000, -3563.000000)" fill="#C8C8C8">
            <path d="M1129,3700.8 L1143.8,3700.8 C1152.3,3700.8 1156.55,3704.4 1156.55,3711.65 C1156.55,3718.95 1152.25,3722.6 1143.7,3722.6 L1134.45,3722.6 L1134.45,3736.5 L1129,3736.5 L1129,3700.8 Z M1134.45,3705.45 L1134.45,3717.95 L1143.35,3717.95 C1146.05,3717.95 1148,3717.45 1149.25,3716.45 C1150.45,3715.45 1151.1,3713.85 1151.1,3711.65 C1151.1,3709.45 1150.45,3707.85 1149.2,3706.95 C1147.95,3705.95 1146,3705.45 1143.35,3705.45 L1134.45,3705.45 Z M1160.39412,3700.8 L1186.04412,3700.8 L1186.04412,3705.45 L1165.84412,3705.45 L1165.84412,3715.85 L1184.84412,3715.85 L1184.84412,3720.5 L1165.84412,3720.5 L1165.84412,3731.85 L1186.89412,3731.85 L1186.89412,3736.5 L1160.39412,3736.5 L1160.39412,3700.8 Z M1206.73823,3700.1 C1210.88823,3700.1 1214.33823,3701.15 1217.03823,3703.35 C1219.63823,3705.45 1221.23823,3708.35 1221.78823,3711.95 L1216.48823,3711.95 C1215.88823,3709.55 1214.73823,3707.75 1213.03823,3706.6 C1211.33823,3705.45 1209.23823,3704.9 1206.63823,3704.9 C1202.78823,3704.9 1199.88823,3706.2 1197.93823,3708.85 C1196.08823,3711.25 1195.18823,3714.55 1195.18823,3718.7 C1195.18823,3723 1196.08823,3726.3 1197.88823,3728.65 C1199.78823,3731.15 1202.73823,3732.4 1206.73823,3732.4 C1209.33823,3732.4 1211.53823,3731.75 1213.23823,3730.45 C1215.03823,3729.05 1216.28823,3726.95 1216.98823,3724.15 L1222.28823,3724.15 C1221.48823,3728.3 1219.63823,3731.55 1216.68823,3733.9 C1213.93823,3736.1 1210.63823,3737.2 1206.78823,3737.2 C1200.93823,3737.2 1196.53823,3735.3 1193.58823,3731.6 C1190.98823,3728.4 1189.73823,3724.1 1189.73823,3718.7 C1189.73823,3713.4 1191.03823,3709.1 1193.73823,3705.75 C1196.73823,3701.95 1201.03823,3700.1 1206.73823,3700.1 Z M1226.58235,3700.8 L1232.03235,3700.8 L1232.03235,3723 C1232.03235,3726.2 1232.73235,3728.55 1234.23235,3730.1 C1235.73235,3731.65 1238.08235,3732.45 1241.33235,3732.45 C1244.53235,3732.45 1246.88235,3731.65 1248.38235,3730.1 C1249.83235,3728.55 1250.58235,3726.2 1250.58235,3723 L1250.58235,3700.8 L1256.03235,3700.8 L1256.03235,3722.9 C1256.03235,3727.55 1254.73235,3731.1 1252.18235,3733.55 C1249.63235,3735.95 1246.03235,3737.2 1241.33235,3737.2 C1236.58235,3737.2 1232.98235,3736 1230.48235,3733.6 C1227.88235,3731.1 1226.58235,3727.55 1226.58235,3722.9 L1226.58235,3700.8 Z M1261.82647,3700.8 L1267.22647,3700.8 L1267.22647,3731.85 L1286.87647,3731.85 L1286.87647,3736.5 L1261.82647,3736.5 L1261.82647,3700.8 Z M1290.27058,3700.8 L1295.67058,3700.8 L1295.67058,3736.5 L1290.27058,3736.5 L1290.27058,3700.8 Z M1311.8147,3700.8 L1318.0147,3700.8 L1331.7647,3736.5 L1325.9147,3736.5 L1322.5647,3727.3 L1307.2147,3727.3 L1303.8647,3736.5 L1298.0647,3736.5 L1311.8147,3700.8 Z M1308.8647,3722.8 L1320.9147,3722.8 L1315.0147,3706.65 L1314.8147,3706.65 L1308.8647,3722.8 Z M1334.05882,3700.8 L1349.85882,3700.8 C1353.45882,3700.8 1356.35882,3701.6 1358.45882,3703.25 C1360.65882,3705.05 1361.75882,3707.6 1361.75882,3711 C1361.75882,3712.9 1361.25882,3714.55 1360.25882,3716 C1359.10882,3717.6 1357.55882,3718.65 1355.60882,3719.15 L1355.60882,3719.25 C1358.80882,3719.95 1360.55882,3722.05 1360.95882,3725.55 L1361.55882,3731.25 C1361.75882,3733.45 1362.45882,3735.2 1363.65882,3736.5 L1357.75882,3736.5 C1356.90882,3735.4 1356.40882,3733.8 1356.20882,3731.8 L1355.75882,3727.35 C1355.55882,3725.35 1354.90882,3723.95 1353.85882,3723.05 C1352.75882,3722.15 1351.20882,3721.75 1349.15882,3721.75 L1339.50882,3721.75 L1339.50882,3736.5 L1334.05882,3736.5 L1334.05882,3700.8 Z M1339.50882,3705.45 L1339.50882,3717.1 L1349.15882,3717.1 C1351.55882,3717.1 1353.35882,3716.55 1354.55882,3715.55 C1355.70882,3714.55 1356.30882,3713.1 1356.30882,3711.2 C1356.30882,3709.2 1355.70882,3707.75 1354.60882,3706.85 C1353.40882,3705.9 1351.60882,3705.45 1349.10882,3705.45 L1339.50882,3705.45 Z M1367.55293,3700.8 L1372.95293,3700.8 L1372.95293,3736.5 L1367.55293,3736.5 L1367.55293,3700.8 Z M1376.09705,3700.8 L1405.34705,3700.8 L1405.34705,3705.45 L1393.44705,3705.45 L1393.44705,3736.5 L1388.04705,3736.5 L1388.04705,3705.45 L1376.09705,3705.45 L1376.09705,3700.8 Z M1405.19117,3700.8 L1411.74117,3700.8 L1422.04117,3717.15 L1432.34117,3700.8 L1438.89117,3700.8 L1424.74117,3722.25 L1424.74117,3736.5 L1419.34117,3736.5 L1419.34117,3722.25 L1405.19117,3700.8 Z" id="PECULIARITY" transform="translate(1283.945584, 3718.650000) rotate(-270.000000) translate(-1283.945584, -3718.650000) "></path>
        </g>
    </g>
</svg>